<?xml version="1.0" standalone="no"?>
<!DOCTYPE svg PUBLIC "-//W3C//DTD SVG 20010904//EN"
 "http://www.w3.org/TR/2001/REC-SVG-20010904/DTD/svg10.dtd">
<svg version="1.0" xmlns="http://www.w3.org/2000/svg"
 width="700.000000pt" height="700.000000pt" viewBox="0 0 700.000000 700.000000"
 preserveAspectRatio="xMidYMid meet">
<metadata>
Created by potrace 1.14, written by Peter Selinger 2001-2017
</metadata>
<g transform="translate(0.000000,700.000000) scale(0.100000,-0.100000)"
fill="#000000" stroke="none">
<path d="M942 6504 c-214 -45 -392 -219 -454 -444 -19 -69 -20 -1720 -1 -1814
38 -185 155 -333 330 -418 43 -20 79 -36 82 -35 4 0 30 -5 59 -11 35 -8 168
-12 403 -12 l350 0 359 -240 c197 -132 360 -240 363 -240 2 0 3 106 3 236 -1
130 2 238 5 240 3 1 66 4 140 5 148 1 228 17 318 63 142 71 255 205 304 361
22 70 22 71 22 935 0 476 -4 885 -8 909 -42 222 -236 418 -460 465 -94 20
-1722 20 -1815 0z"/>
<path d="M4350 4673 c-411 -61 -731 -330 -854 -719 -37 -119 -50 -218 -43
-352 7 -143 11 -164 48 -274 53 -161 129 -287 244 -403 274 -277 677 -379
1045 -264 550 172 854 771 670 1317 -142 418 -533 700 -970 699 -63 0 -126 -2
-140 -4z"/>
<path d="M3638 2505 c-2 -2 -24 -6 -50 -9 -121 -16 -281 -91 -408 -189 -118
-92 -271 -263 -339 -379 l-21 -34 784 0 783 0 46 -27 c90 -53 103 -87 133
-332 3 -27 7 -61 9 -75 2 -14 6 -52 10 -85 4 -33 8 -67 10 -75 2 -8 6 -44 10
-80 4 -36 8 -72 10 -80 2 -8 6 -44 9 -80 4 -36 9 -76 11 -90 3 -14 7 -45 10
-70 9 -86 26 -225 31 -250 2 -14 7 -54 10 -90 4 -36 10 -69 14 -75 6 -7 322
-10 917 -10 l908 1 0 414 c0 228 -4 435 -8 460 -51 279 -155 498 -340 718 -39
46 -95 104 -126 130 -31 26 -62 53 -69 60 -8 7 -40 30 -71 51 -169 114 -338
176 -510 185 -75 4 -103 -1 -178 -35 -24 -10 -45 -19 -48 -19 -2 0 -28 -11
-57 -24 -119 -54 -318 -109 -442 -122 -85 -9 -258 -6 -316 6 -30 6 -71 13 -90
16 -49 8 -225 73 -363 134 -102 45 -128 52 -192 55 -40 2 -75 2 -77 0z"/>
<path d="M1924 1678 c-3 -4 -2 -26 1 -50 9 -72 15 -120 21 -178 3 -30 7 -66 9
-80 2 -14 7 -45 9 -70 3 -25 15 -117 25 -205 11 -88 23 -182 26 -210 3 -27 8
-66 10 -85 3 -19 7 -55 10 -80 3 -25 7 -61 10 -80 3 -19 7 -60 11 -90 3 -30 9
-59 14 -64 4 -4 541 -8 1192 -8 1345 0 1241 0 1235 9 -3 5 -8 35 -12 68 -9 74
-11 91 -18 135 -3 19 -11 71 -17 116 -6 44 -12 89 -14 100 -4 19 -13 88 -21
152 -4 33 -13 97 -20 142 -7 50 -36 256 -41 295 -16 139 -27 185 -43 186 -80
5 -2384 2 -2387 -3z"/>
</g>
</svg>
