<svg class="icon" xmlns="http://www.w3.org/2000/svg" xmlns:xlink="http://www.w3.org/1999/xlink" x="0px" y="0px" viewBox="0 0 28 28" enable-background="new 0 0 28 28" xml:space="preserve">
  <path id="Mastodon" fill-rule="evenodd" clip-rule="evenodd" fill="#D1CECC" d="M 14 0 A 14 14 0 0 0 0 14 A 14 14 0 0 0 14 28 A 14 14 0 0 0 28 14 A 14 14 0 0 0 14 0 z M 13.978516 7.65625 L 14.021484 7.65625 C 15.809765 7.6726563 17.533594 7.8640625 18.537109 8.3261719 C 18.537109 8.3261719 20.527344 9.2167972 20.527344 12.251953 C 20.527344 12.251953 20.551563 14.494922 20.248047 16.050781 C 20.056641 17.037891 18.528125 18.117578 16.775391 18.328125 C 15.859375 18.434767 14.959766 18.535937 14 18.492188 C 12.430469 18.421094 11.191406 18.117188 11.191406 18.117188 C 11.191406 18.262109 11.19961 18.407813 11.21875 18.552734 C 11.423828 20.103125 12.756249 20.196484 14.019531 20.240234 C 15.293749 20.283984 16.427734 19.925781 16.427734 19.925781 L 16.480469 21.076172 C 16.480469 21.076172 15.588672 21.555078 14 21.642578 C 13.122266 21.689063 12.0375 21.61875 10.771484 21.285156 C 8.0261719 20.557812 7.5515628 17.63164 7.4804688 14.662109 C 7.4585967 13.778906 7.4726562 12.946485 7.4726562 12.251953 C 7.4726562 9.2140629 9.4628906 8.3261719 9.4628906 8.3261719 C 10.466407 7.8640625 12.190235 7.669922 13.978516 7.65625 z M 11.955078 10.033203 C 11.312499 10.033203 10.792968 10.256251 10.396484 10.699219 C 10.010937 11.142188 9.8183594 11.738281 9.8183594 12.490234 L 9.8183594 16.166016 L 11.277344 16.166016 L 11.277344 12.597656 C 11.277344 11.845703 11.592968 11.462891 12.224609 11.462891 C 12.924609 11.462891 13.275391 11.913672 13.275391 12.810547 L 13.275391 14.765625 L 14.724609 14.765625 L 14.724609 12.810547 C 14.724609 11.916406 15.075391 11.462891 15.775391 11.462891 C 16.407032 11.462891 16.722656 11.845703 16.722656 12.597656 L 16.722656 16.166016 L 18.181641 16.166016 L 18.181641 12.490234 C 18.181641 11.738281 17.990234 11.139454 17.607422 10.699219 C 17.210937 10.258985 16.691406 10.033203 16.048828 10.033203 C 15.302344 10.033203 14.73789 10.316406 14.363281 10.890625 L 14 11.498047 L 13.638672 10.890625 C 13.264062 10.31914 12.701562 10.033203 11.955078 10.033203 z "/>
</svg>
