<svg version="1.1" xmlns="http://www.w3.org/2000/svg" x="0" y="0" width="512" height="512" viewBox="0 0 512 512" xml:space="preserve" enable-background="new 0 0 512 512"><path d="M412 50H100c-27.6 0-50 22.4-50 50v312c0 27.6 22.4 50 50 50h312c27.6 0 50-22.4 50-50V100C462 72.4 439.6 50 412 50zM301.7 396.4c-7.3 1.4-9.6-3.1-9.6-6.9 0-4.7 0-20.3 0-39.6 0-13.4-4.7-22.2-9.9-26.7 32.1-3.6 65.8-15.8 65.8-71.1 0-15.7-5.6-28.6-14.8-38.7 1.5-3.6 6.4-18.3-1.4-38.2 0 0-12.1-3.9-39.6 14.8 -11.5-3.2-23.9-4.8-36.1-4.9 -12.3 0.1-24.6 1.7-36.1 4.9 -27.6-18.7-39.7-14.8-39.7-14.8 -7.8 19.9-2.9 34.5-1.4 38.2 -9.2 10.1-14.9 23-14.9 38.7 0 55.3 33.7 67.6 65.7 71.3 -4.1 3.6-7.9 10-9.2 19.3 -8.2 3.7-29.1 10.1-42-12 0 0-7.6-13.8-22.1-14.9 0 0-14.1-0.2-1 8.8 0 0 9.5 4.4 16 21.1 0 0 8.4 25.7 48.5 17v26.9c0 3.8-2.3 8.3-9.5 6.9 -57.3-19.1-98.6-73.1-98.6-136.8 0-79.6 64.6-144.2 144.2-144.2 79.6 0 144.2 64.6 144.2 144.2C400.2 323.3 358.9 377.3 301.7 396.4z"/></svg>