<?xml version="1.0" encoding="utf-8"?>

<!-- License Agreement at http://iconmonstr.com/license/ -->

<!DOCTYPE svg PUBLIC "-//W3C//DTD SVG 1.1//EN" "http://www.w3.org/Graphics/SVG/1.1/DTD/svg11.dtd">
<svg version="1.1" xmlns="http://www.w3.org/2000/svg" xmlns:xlink="http://www.w3.org/1999/xlink" x="0px" y="0px"
	 width="512px" height="512px" viewBox="0 0 512 512" style="enable-background:new 0 0 512 512;" xml:space="preserve">
<path id="archive-10-icon" d="M444.797,259v203h-378V259h40v163h298V259H444.797z M297.756,319.999h-83.917
	c-9.664,0-17.5-7.834-17.5-17.5c0-9.665,7.836-17.5,17.5-17.5h83.917c9.664,0,17.499,7.835,17.499,17.5
	C315.255,312.165,307.42,319.999,297.756,319.999z M461.797,132v97H50.203v-97l76.594-82h259L461.797,132z M112.723,123.667h286.813
	L368.332,90H144.17L112.723,123.667z M421.797,189v-25.333H90.203V189H421.797z"/>
</svg>
