<svg version="1.1" xmlns="http://www.w3.org/2000/svg" x="0" y="0" width="512" height="512" viewBox="0 0 512 512" enable-background="new 0 0 512 512" xml:space="preserve"><path d="M412 50H100c-27.6 0-50 22.4-50 50v312c0 27.6 22.4 50 50 50h312c27.6 0 50-22.4 50-50V100C462 72.4 439.6 50 412 50zM399.1 192c-1.3 28.1-20.9 66.5-58.8 115.3 -39.2 51-72.4 76.5-99.5 76.5 -16.8 0-31-15.5-42.7-46.6 -7.8-28.5-15.5-56.9-23.3-85.4 -8.6-31-17.9-46.6-27.8-46.6 -2.2 0-9.7 4.5-22.6 13.6l-13.6-17.5c14.2-12.5 28.3-25 42.1-37.5 19-16.4 33.2-25 42.7-25.9 22.4-2.2 36.3 13.2 41.4 46 5.6 35.4 9.5 57.5 11.7 66.1 6.5 29.4 13.6 44.1 21.4 44.1 6 0 15.1-9.5 27.2-28.6 12.1-19.1 18.5-33.6 19.4-43.6 1.7-16.5-4.8-24.7-19.4-24.7 -6.9 0-14 1.6-21.3 4.7 14.2-46.4 41.3-69 81.2-67.7C386.8 135.1 400.8 154.4 399.1 192z"/></svg>