<svg version="1.1" xmlns="http://www.w3.org/2000/svg" x="0" y="0" width="512" height="512" viewBox="0 0 512 512" enable-background="new 0 0 512 512" xml:space="preserve"><path d="M209 235.7c-22.3-0.7-43.6-21.2-47.4-50.5 -3.9-29.3 11.1-51.8 33.5-51.1 22.3 0.7 41.4 24.7 45.3 54.1C244.2 217.5 231.4 236.3 209 235.7zM204.5 295.7c-33.3-0.4-61.5 21-61.5 45.8 0 25.3 24 46.4 57.3 46.4 42.5 0 63.1-19.8 63.1-45.1C263.4 318.7 241.4 295.7 204.5 295.7zM461.9 101v312c0 27.6-22.4 50-50 50h-312c-27.6 0-50-22.4-50-50V101c0-27.6 22.4-50 50-50h312C439.6 51 461.9 73.4 461.9 101zM292.1 339.9c0-23.4-8.7-38.6-35.1-58.4 -26.8-19.5-33.3-30.6-7.8-50.3 14.4-11.1 24.5-26 24.5-44.3 0-20-8.2-38.1-23.5-46.9h21.8l18.5-19.4c0 0-69.8 0-82.9 0 -51.7 0-77.1 31-77.1 65.1 0 34.9 23.9 62.3 70.6 62.3 -7.2 14.6-4.3 28.1 7.5 37.8 -79.8 0-96.8 35-96.8 62 0 34.9 40.2 55.7 88.3 55.7C265.9 403.4 292.1 368.5 292.1 339.9zM400.1 162.6H361.9v-38.2h-19.1v38.2h-38.2v19.1h38.2v38.2h19.1v-38.2h38.2V162.6z"/></svg>